<?xml version="1.0" encoding="utf-8"?>
<!-- Generator: Adobe Illustrator 15.1.0, SVG Export Plug-In . SVG Version: 6.00 Build 0)  -->
<!DOCTYPE svg PUBLIC "-//W3C//DTD SVG 1.1//EN" "http://www.w3.org/Graphics/SVG/1.1/DTD/svg11.dtd">
<svg version="1.1" id="Layer_1" xmlns="http://www.w3.org/2000/svg" xmlns:xlink="http://www.w3.org/1999/xlink" x="0px" y="0px"
	 width="192.344px" height="56.522px" viewBox="0 0 192.344 56.522" enable-background="new 0 0 192.344 56.522"
	 xml:space="preserve">
<g>
	<g>
		<polyline fill="#FFFFFF" points="15.391,23.689 42.145,8.248 15.391,7.967 15.391,23.689 15.391,7.967 		"/>
		<polygon fill="#FFFFFF" points="29.086,17.075 55.834,32.529 42.703,9.216 29.086,17.075 42.703,9.216 		"/>
		<polyline fill="#FFFFFF" points="26.826,47.401 0.076,31.95 13.209,55.261 26.826,47.401 13.209,55.261 		"/>
		<polygon fill="#FFFFFF" points="14.273,7.959 0.66,0.386 0.646,30.984 0.646,30.985 0.646,30.986 14.336,38.894 		"/>
		<polygon fill="#FFFFFF" points="41.641,56.522 55.268,33.497 41.654,25.63 		"/>
		<polyline fill="#FFFFFF" points="40.531,40.799 13.771,56.235 40.527,56.522 40.531,40.799 40.527,56.522 		"/>
	</g>
	<g>
		<path fill="#FFFFFF" d="M94.992,26.845c-2.064-1.885-4.506-2.988-7.258-3.276c-2.303-0.243-4.584,0.159-6.66,1.17
			c-1.951,0.923-3.563,2.282-4.797,4.045V15.702h-2.271v33.156h2.271v-5.583c1.098,1.722,2.543,3.197,4.316,4.402l0.197,0.098
			c1.852,1.049,3.852,1.581,5.943,1.581c0.396,0,0.805-0.019,1.211-0.058c1.785-0.156,3.49-0.715,5.07-1.66
			c1.57-0.94,2.898-2.162,3.947-3.636c0.998-1.463,1.684-3.118,2.037-4.921c0.354-1.804,0.342-3.596-0.035-5.326
			C98.367,31.031,97.031,28.706,94.992,26.845z M96.768,38.655c-0.289,1.489-0.855,2.855-1.684,4.059
			c-0.83,1.185-1.912,2.177-3.219,2.948s-2.699,1.233-4.141,1.371c-2.098,0.217-4.096-0.213-5.873-1.255
			c-1.721-1.159-3.102-2.672-4.102-4.494c-0.998-1.813-1.492-3.677-1.473-5.534c0.039-1.916,0.586-3.698,1.623-5.299
			c1.037-1.602,2.436-2.834,4.156-3.665c1.383-0.671,2.865-1.012,4.404-1.012c0.354,0,0.701,0.02,1.041,0.06
			c2.256,0.238,4.262,1.141,5.965,2.684c1.686,1.548,2.791,3.468,3.287,5.703C97.051,35.669,97.057,37.163,96.768,38.655z"/>
		<path fill="#FFFFFF" d="M126.166,31.487c-0.975-2.349-2.559-4.287-4.707-5.761c-2.154-1.477-4.584-2.225-7.223-2.225
			c-2.305,0-4.475,0.579-6.449,1.722s-3.555,2.723-4.697,4.696c-1.143,1.975-1.721,4.145-1.721,6.45
			c0,1.031,0.121,2.044,0.355,2.987c0.008,0.064,0.023,0.126,0.045,0.188c0.709,2.796,2.238,5.135,4.543,6.951
			c2.309,1.82,4.975,2.742,7.924,2.742c2.24,0,4.342-0.54,6.252-1.605c1.908-1.064,3.459-2.538,4.613-4.38l0.213-0.339l-1.32-2.254
			l-0.564,0.996c-0.91,1.602-2.195,2.902-3.822,3.864c-1.621,0.959-3.43,1.445-5.371,1.445c-2.416,0-4.6-0.747-6.49-2.223
			c-1.879-1.465-3.145-3.361-3.758-5.599l-0.02-0.18c-0.217-0.85-0.328-1.723-0.328-2.595c0-0.013,0-0.024,0-0.037h22.074
			c0.525,0,0.797-0.055,1-0.201c0.447-0.316,0.354-0.909,0.324-1.09C126.928,33.816,126.633,32.621,126.166,31.487z M124.594,34.06
			h-20.695c0.484-2.228,1.629-4.141,3.4-5.69c1.971-1.722,4.305-2.596,6.938-2.596c2.121,0,4.072,0.577,5.805,1.715
			c1.734,1.14,3.035,2.661,3.865,4.52C124.197,32.666,124.43,33.355,124.594,34.06z"/>
		<path fill="#FFFFFF" d="M154.576,31.487c-0.975-2.349-2.559-4.287-4.707-5.761c-2.152-1.477-4.584-2.225-7.223-2.225
			c-2.305,0-4.475,0.579-6.449,1.722s-3.555,2.723-4.697,4.696c-1.143,1.975-1.721,4.145-1.721,6.45
			c0,1.031,0.121,2.044,0.355,2.987c0.008,0.064,0.023,0.126,0.045,0.188c0.709,2.796,2.238,5.135,4.543,6.951
			c2.309,1.82,4.975,2.742,7.924,2.742c2.24,0,4.342-0.54,6.252-1.605c1.908-1.064,3.459-2.538,4.613-4.38l0.213-0.339l-1.32-2.254
			l-0.566,0.996c-0.908,1.602-2.193,2.902-3.82,3.864c-1.621,0.959-3.43,1.445-5.371,1.445c-2.416,0-4.6-0.747-6.49-2.223
			c-1.879-1.465-3.145-3.361-3.758-5.599l-0.02-0.18c-0.217-0.85-0.328-1.723-0.328-2.595c0-0.013,0-0.024,0-0.037h22.074
			c0.525,0,0.797-0.055,1-0.201c0.447-0.316,0.354-0.909,0.324-1.09C155.338,33.816,155.043,32.621,154.576,31.487z M153.004,34.06
			h-20.695c0.484-2.228,1.629-4.141,3.4-5.69c1.971-1.722,4.305-2.596,6.938-2.596c2.121,0,4.072,0.577,5.805,1.715
			c1.734,1.14,3.035,2.661,3.865,4.52C152.607,32.666,152.84,33.355,153.004,34.06z"/>
		<polygon fill="#FFFFFF" points="164.516,43.307 155.816,24.238 153.352,24.239 164.461,49.028 176.18,24.612 173.691,24.612 		"/>
		<path fill="#FFFFFF" d="M178.604,15.734c-0.623,0-1.164,0.225-1.607,0.668c-0.445,0.443-0.67,0.985-0.67,1.609
			s0.225,1.165,0.67,1.608c0.443,0.443,0.984,0.669,1.607,0.669c0.625,0,1.166-0.226,1.609-0.669
			c0.443-0.444,0.668-0.985,0.668-1.608s-0.225-1.164-0.668-1.608S179.229,15.734,178.604,15.734z"/>
		<rect x="177.467" y="24.073" fill="#FFFFFF" width="2.273" height="24.785"/>
		<path fill="#FFFFFF" d="M191.732,23.705c-0.254-0.051-0.521-0.076-0.795-0.076h-0.127c-1.68,0-3.209,0.502-4.541,1.488
			c-0.289,0.211-0.566,0.442-0.822,0.691v-1.672h-2.273v24.722h2.273l-0.002-17.889c0.02-0.229,0.047-0.464,0.086-0.691
			c0.266-1.405,0.949-2.495,2.088-3.331c1.123-0.824,2.402-1.165,3.787-1.018l0.637,0.069l0.301-2.172L191.732,23.705z"/>
	</g>
</g>
</svg>
